<?xml version="1.0" encoding="iso-8859-1"?>
<!-- Generator: Adobe Illustrator 19.0.0, SVG Export Plug-In . SVG Version: 6.00 Build 0)  -->
<svg version="1.1" id="Layer_1" xmlns="http://www.w3.org/2000/svg" xmlns:xlink="http://www.w3.org/1999/xlink" x="0px" y="0px"
	 viewBox="0 0 505 505" style="enable-background:new 0 0 505 505;" xml:space="preserve">
<circle style="fill:#54C0EB;" cx="252.5" cy="252.5" r="252.5"/>
<path style="fill:#324A5E;" d="M422.3,359.9H82.7c-2.2,0-3.9-1.8-3.9-3.9V113.3c0-2.2,1.8-3.9,3.9-3.9h339.7c2.2,0,3.9,1.8,3.9,3.9
	v242.6C426.2,358.1,424.5,359.9,422.3,359.9z"/>
<rect x="104.8" y="135.5" style="fill:#FFFFFF;" width="277.1" height="198.3"/>
<g>
	<rect x="145.3" y="245.5" style="fill:#E6E9EE;" width="197.5" height="12.2"/>
	<rect x="145.3" y="271.5" style="fill:#E6E9EE;" width="197.5" height="12.2"/>
	<rect x="145.3" y="297.6" style="fill:#E6E9EE;" width="136.8" height="12.2"/>
	<circle style="fill:#E6E9EE;" cx="402.8" cy="234.6" r="10.8"/>
</g>
<path style="fill:#FFD05B;" d="M258,344.3c-8.3-0.8-15.3,5.7-15.3,13.9v-7.3c0-7.3-5.3-13.8-12.6-14.5c-8.3-0.8-15.3,5.7-15.3,13.9
	V343c0-7.3-5.3-13.8-12.6-14.5c-8.3-0.8-15.3,5.7-15.3,13.9v-65.9c0-7.3-5.3-13.8-12.6-14.5c-8.3-0.8-15.3,5.7-15.3,13.9v91
	c-7.3-8.6-10.8-11.8-19.3-19.4c-6.3-5.6-15.5-6-20.5-0.7c-5.7,6.1-4.6,15.7,1.5,21.1c9.1,8.1,13.2,12.1,20.8,21.6
	c8.7,10.9,14.7,23.5,19.3,36.7c4.6,13.3,17.2,22.8,32.1,22.8h43.5c18.7,0,33.9-15.2,33.9-33.9v-56.3
	C270.6,351.5,265.3,345,258,344.3z"/>
<g>
	<path style="fill:#FF7058;" d="M182.1,169.1c3.7,3.2,5.6,8.1,5.6,14.7s-1.9,11.4-5.8,14.5c-3.9,3.1-9.7,4.6-17.6,4.6h-7.1v14.9
		h-11.9v-53.5h18.9C172.4,164.4,178.4,166,182.1,169.1z M173.3,190.2c1.4-1.6,2.1-4,2.1-7c0-3.1-0.9-5.3-2.8-6.6
		c-1.9-1.3-4.8-2-8.7-2h-6.8v18h8C169.2,192.6,171.9,191.8,173.3,190.2z"/>
	<path style="fill:#FF7058;" d="M242,210.5c-5.4,5.3-12.1,7.9-20,7.9s-14.6-2.6-20-7.9c-5.4-5.3-8.1-11.8-8.1-19.7
		s2.7-14.4,8.1-19.7c5.4-5.3,12.1-7.9,20-7.9s14.6,2.6,20,7.9c5.4,5.3,8.1,11.8,8.1,19.7C250.2,198.6,247.4,205.2,242,210.5z
		 M238,190.8c0-4.8-1.5-8.8-4.6-12.2s-6.8-5-11.3-5s-8.2,1.7-11.3,5c-3.1,3.4-4.6,7.4-4.6,12.2s1.5,8.8,4.6,12.2
		c3.1,3.3,6.8,5,11.3,5s8.2-1.7,11.3-5C236.5,199.6,238,195.6,238,190.8z"/>
	<path style="fill:#FF7058;" d="M272.3,175c-1.1,0.9-1.7,2.2-1.7,3.7c0,1.6,0.7,2.8,2.1,3.7s4.6,2,9.7,3.3s9,3.1,11.8,5.6
		s4.2,6.1,4.2,10.9c0,4.8-1.8,8.7-5.4,11.7s-8.3,4.5-14.2,4.5c-8.5,0-16.1-3.1-22.9-9.4l7.1-8.7c5.8,5,11.1,7.6,16,7.6
		c2.2,0,3.9-0.5,5.2-1.4c1.2-0.9,1.9-2.2,1.9-3.8s-0.7-2.9-2-3.8c-1.3-0.9-4-1.9-7.9-2.9c-6.2-1.5-10.8-3.4-13.7-5.8
		c-2.9-2.4-4.3-6.1-4.3-11.2c0-5.1,1.8-9,5.5-11.7c3.6-2.8,8.2-4.1,13.7-4.1c3.6,0,7.1,0.6,10.7,1.8s6.7,3,9.3,5.2l-6,8.7
		c-4.6-3.5-9.4-5.3-14.4-5.3C275,173.6,273.4,174.1,272.3,175z"/>
	<path style="fill:#FF7058;" d="M330.8,174.7v43.1h-11.9v-43.1h-15.1v-10.3H346v10.3L330.8,174.7L330.8,174.7z"/>
</g>
<g>
</g>
<g>
</g>
<g>
</g>
<g>
</g>
<g>
</g>
<g>
</g>
<g>
</g>
<g>
</g>
<g>
</g>
<g>
</g>
<g>
</g>
<g>
</g>
<g>
</g>
<g>
</g>
<g>
</g>
</svg>
