<?xml version="1.0" encoding="iso-8859-1"?>
<!-- Generator: Adobe Illustrator 19.0.0, SVG Export Plug-In . SVG Version: 6.00 Build 0)  -->
<svg version="1.1" id="Layer_1" xmlns="http://www.w3.org/2000/svg" xmlns:xlink="http://www.w3.org/1999/xlink" x="0px" y="0px"
	 viewBox="0 0 512 512" style="enable-background:new 0 0 512 512;" xml:space="preserve">
<circle style="fill:#83CF8F;" cx="256" cy="256" r="256"/>
<path style="fill:#FFFFFF;" d="M149.4,68.8h213.3c8,0,14.5,6.5,14.5,14.5v281c0,8-6.5,14.5-14.5,14.5H149.4c-8,0-14.5-6.5-14.5-14.5
	v-281C134.9,75.3,141.4,68.8,149.4,68.8z"/>
<path style="fill:#FF7069;" d="M145.5,98.5h221c0.2,0,0.5,0.2,0.5,0.5v241.7c0,0.2-0.2,0.4-0.5,0.4h-221c-0.2,0-0.4-0.2-0.4-0.4V99
	C145,98.7,145.2,98.5,145.5,98.5z"/>
<path style="fill:#C6CBD6;" d="M230.8,83.8h50.4c1.5,0,2.7,1.2,2.7,2.7l0,0c0,1.5-1.2,2.7-2.7,2.7h-50.4c-1.5,0-2.7-1.2-2.7-2.7l0,0
	C228.1,85,229.3,83.8,230.8,83.8z"/>
<path style="fill:#546E7A;" d="M256,348c6.7,0,12.1,5.4,12.1,12.1s-5.4,12.1-12.1,12.1c-6.7,0-12.1-5.4-12.1-12.1S249.3,348,256,348
	z"/>
<path style="fill:#C6CBD6;" d="M161.2,79.4c2.8,0,5.1,2.3,5.1,5.1s-2.3,5.1-5.1,5.1s-5.1-2.3-5.1-5.1S158.4,79.4,161.2,79.4z"/>
<path style="fill:#FFFFFF;" d="M161.2,82.7c1,0,1.8,0.8,1.8,1.8s-0.8,1.8-1.8,1.8s-1.8-0.8-1.8-1.8
	C159.5,83.5,160.3,82.7,161.2,82.7z"/>
<path style="fill:#FFE356;" d="M297.1,135.7c-18.4,1.9-36.9,3.8-55.3,5.8c-18.4,1.9-36.9,3.8-55.3,5.8l0,0c-3.1,0.3-5,2.9-4.3,5.6
	c2.6,9.3,5.2,18.7,7.8,28s5.2,18.7,7.8,28c0.8,2.8,3.2,5,5.4,5h4.3v5.4v4.9c0,0.6,0.5,1.1,1.1,1.1h4.9H274c0.6,0,1.1-0.5,1.1-1.1
	v-3.7c0-0.6-0.5-1.1-1.1-1.1h-59.3c-0.6,0-1.1-0.5-1.1-1.1V214h28.6c13,0,26,0,39,0c2.2,0,4.6-2.7,5.3-6c2.5-11.1,5-22.3,7.5-33.4
	c2.5-11.1,5-22.3,7.5-33.4C302.2,137.9,300.2,135.4,297.1,135.7z M209.3,204c-0.1,0-0.2,0-0.3,0c-1,0-2.1-1-2.3-2.2
	c-1.6-7.4-3.1-14.8-4.7-22.2c-1.6-7.4-3.1-14.8-4.7-22.2c-0.3-1.3,0.6-2.4,1.9-2.5l0,0c0.1,0,0.2,0,0.3,0c1.3-0.1,2.6,0.8,2.8,2.1
	c1.4,7.5,2.8,14.9,4.2,22.4s2.8,14.9,4.2,22.4C210.9,202.9,210.3,204,209.3,204z M222.7,203.1c-0.1,0-0.2,0-0.3,0c-1,0-2-1-2.2-2.3
	c-1-7.6-2-15.2-3-22.8s-2-15.2-3-22.8c-0.2-1.3,0.8-2.4,2.1-2.5l0,0c0.1,0,0.2,0,0.3,0c1.3-0.1,2.5,0.8,2.7,2.1
	c0.8,7.7,1.6,15.4,2.4,23c0.8,7.7,1.6,15.3,2.4,23C224.4,202,223.7,203,222.7,203.1z M236.2,202.8c-0.1,0-0.2,0-0.3,0
	c-1,0-1.9-1-2-2.3c-0.4-7.8-0.8-15.6-1.2-23.5c-0.4-7.8-0.8-15.6-1.2-23.5c-0.1-1.3,0.9-2.5,2.3-2.6c0.1,0,0.2,0,0.3,0
	c1.3-0.1,2.4,0.8,2.5,2.2c0.2,7.9,0.5,15.8,0.7,23.6c0.2,7.9,0.5,15.8,0.7,23.6C238,201.6,237.2,202.7,236.2,202.8z M252.7,175.7
	c-0.4,8.1-0.7,16.2-1.1,24.2c-0.1,1.3-1,2.5-2,2.5c-0.1,0-0.2,0-0.3,0c-1,0-1.8-1.1-1.8-2.4c0.2-8,0.4-16,0.5-24.1
	c0.2-8,0.4-16.1,0.5-24.1c0-1.3,1.1-2.5,2.5-2.7l0,0c0.1,0,0.2,0,0.3,0c1.3-0.1,2.4,0.9,2.3,2.2
	C253.5,159.5,253.1,167.6,252.7,175.7z M271,149.9c-0.9,8.3-1.9,16.6-2.8,24.9c-0.9,8.3-1.9,16.6-2.8,24.9c-0.2,1.4-1.1,2.5-2.2,2.6
	c-0.1,0-0.2,0-0.3,0c-1,0-1.8-1.1-1.6-2.5c0.8-8.2,1.5-16.5,2.3-24.7s1.5-16.5,2.3-24.7c0.1-1.4,1.3-2.6,2.6-2.7l0,0
	c0.1,0,0.2,0,0.3,0C270.2,147.4,271.2,148.5,271,149.9z M288,149.4c-1.5,8.5-3,17-4.6,25.5c-1.5,8.5-3.1,17-4.6,25.5
	c-0.3,1.4-1.3,2.6-2.3,2.6c-0.1,0-0.2,0-0.3,0c-1,0-1.7-1.1-1.4-2.5c1.3-8.4,2.7-16.9,4.1-25.3c1.3-8.4,2.7-16.9,4-25.3
	c0.2-1.4,1.5-2.7,2.8-2.8l0,0c0.1,0,0.2,0,0.3,0C287.4,146.9,288.3,148,288,149.4z"/>
<path style="fill:#FCD34E;" d="M184.7,152l4,13.9l10.1-1c-0.5-2.5-1.1-5-1.6-7.5c-0.3-1.3,0.6-2.4,1.9-2.5c0.1,0,0.2,0,0.3,0
	c1.3-0.1,2.6,0.8,2.8,2.1c0.5,2.5,0.9,5,1.4,7.5l11.6-1.2l-1-8.1c-0.2-1.3,0.8-2.4,2.1-2.5c0.1,0,0.2,0,0.3,0
	c1.3-0.1,2.5,0.8,2.7,2.1c0.3,2.7,0.6,5.4,0.9,8.1l11.7-1.2c-0.1-2.7-0.3-5.4-0.4-8c-0.1-1.3,0.9-2.5,2.3-2.6c0.1,0,0.2,0,0.3,0
	c1.3-0.1,2.4,0.8,2.5,2.2c0.1,2.7,0.2,5.3,0.2,8l11.7-1.2c0.1-2.7,0.1-5.3,0.2-8c0-1.3,1.1-2.5,2.5-2.7c0.1,0,0.2,0,0.3,0
	c1.3-0.1,2.4,0.9,2.3,2.2c-0.1,2.7-0.2,5.3-0.4,8l11.7-1.2c0.2-2.6,0.5-5.3,0.7-7.9c0.1-1.4,1.3-2.6,2.6-2.7c0.1,0,0.2,0,0.3,0
	c1.3-0.1,2.3,0.9,2.1,2.3c-0.3,2.6-0.6,5.3-0.9,7.9l11.8-1.2c0.4-2.2,0.7-4.5,1.1-6.7c0.2-1.4,1.5-2.7,2.8-2.8c0.1,0,0.2,0,0.3,0
	c1.3-0.1,2.2,0.9,1.9,2.4c-0.4,2.2-0.8,4.5-1.2,6.7l8.4-0.8l6.2-14.1L184.7,152z"/>
<path style="fill:#FFE356;" d="M180.2,145.6l145.3-13.9l0.1-20.1c0-1.2,1-2.3,2.2-2.3l3.9-0.1c1.2,0,2.3,1,2.3,2.2l-0.1,26.6
	c0,1.2-1,2.3-2.2,2.3h-0.2c-0.2,0.1-0.5,0.2-0.7,0.2l-149.5,14.3c-1.3,0.1-2.6-0.8-2.7-2.2l-0.5-4.2
	C177.9,146.9,178.8,145.7,180.2,145.6L180.2,145.6z"/>
<path style="fill:#FED298;" d="M313.5,354.6L313.5,354.6c-4.8-3.5-10.5-1.4-15.1,2.4l-28.2,23.7l-2.1-7.1l-2-17.6l1-38.3l0.9-38.6
	c0.1-6-4.6-11.3-10.7-11.3l0,0c-6,0-11.1,4.7-11.3,10.7l-1.6,66.2l-2.9,0.1l1-15.4c0.4-6-4.7-11.1-10.7-11.3s-10.9,4.7-11.3,10.7
	l-1.1,16.8l-3.3,0.1L217,335c0.5-6-4.6-11.3-10.7-11.3l0,0c-6,0-10.8,4.7-11.3,10.7l-1,12.1l-4,0.1l0.3-6.2
	c0.3-6-4.7-11.3-10.7-11.3l0,0c-6,0-11,4.7-11.3,10.7l-0.6,12.9l-0.3,2.2l2.7,69.4c0.4,9.4,4.2,17.4,8.3,22c1.2,1.3,2.4,2.4,3.6,3.1
	l-1.9,51.2C204.2,508,229.6,512,256,512h0.7l-2.7-65.4c7.2-3.4,16.8-11.7,18.9-17.6l0,0l43-59.3
	C319.4,364.9,318.3,358.1,313.5,354.6L313.5,354.6z"/>
<path style="fill:#37414C;" d="M263.6,470.6l-88.4-1l-1.1,29c25.7,8.7,53.2,13.4,81.9,13.4c3,0,6-0.1,8.9-0.2L263.6,470.6
	L263.6,470.6z"/>
<g>
	<polygon style="fill:#FFFFFF;" points="259.2,457.6 179.9,456.4 179.8,469.6 259.1,470.8 	"/>
	<path style="fill:#FFFFFF;" d="M250,277.4l-0.3,9.5l14.8,0.4l0.3-9.5C265,270.3,249.5,270,250,277.4z M304.3,357.7l-8.2,8.1
		l10.4,10.5l8.2-8.1C320.1,362.9,309.6,352.5,304.3,357.7z"/>
	<path style="fill:#FFFFFF;" d="M260.7,232.8h-5.9V256h5.9V232.8z M286.6,242.4l-5-3.2L269,258.7l5,3.2L286.6,242.4z M229,242.4
		l5-3.2l12.6,19.5l-5,3.2L229,242.4z M211.2,291.4l-0.9-5.9l22.9-3.5l0.9,5.9L211.2,291.4z M212.9,264.3l2.4-5.4l21.1,9.5l-2.4,5.4
		L212.9,264.3z M304.3,291.4l0.9-5.9l-22.9-3.5l-0.9,5.9L304.3,291.4L304.3,291.4z M302.6,264.3l-2.4-5.4l-21.1,9.5l2.4,5.4
		L302.6,264.3z"/>
</g>
<g>
</g>
<g>
</g>
<g>
</g>
<g>
</g>
<g>
</g>
<g>
</g>
<g>
</g>
<g>
</g>
<g>
</g>
<g>
</g>
<g>
</g>
<g>
</g>
<g>
</g>
<g>
</g>
<g>
</g>
</svg>
